<svg width="92" height="92" viewBox="0 0 92 92" fill="none" xmlns="http://www.w3.org/2000/svg">
<path d="M72.6417 56.6751C70.8362 52.9108 64.377 47.6859 58.1365 42.6374C54.6557 39.8236 51.3667 37.1634 49.27 35.0666C48.7447 34.5376 47.959 34.3689 47.2652 34.6181C45.9734 35.0858 45.176 35.4461 44.5474 35.7259C43.5891 36.1551 43.2671 36.3009 41.9752 36.4311C41.404 36.4886 40.8904 36.7954 40.5722 37.2706C37.862 41.3224 35.056 40.9774 33.1815 40.3489C32.5835 40.1496 32.4762 39.8926 32.4187 39.6474C32.0162 37.9646 34.0364 34.0469 36.6545 31.4286C42.8837 25.1956 46.096 23.6354 52.881 26.6676C60.5782 30.1099 68.291 32.8049 68.3677 32.8316C69.3759 33.1804 70.4607 32.6514 70.8095 31.6509C71.1545 30.6504 70.6292 29.5579 69.6287 29.2091C69.552 29.1824 61.9927 26.5411 54.4487 23.1639C45.659 19.2347 40.8365 21.8222 33.948 28.7146C31.326 31.3366 27.7648 36.6419 28.6848 40.5329C29.0795 42.1889 30.245 43.4156 31.9776 43.9866C36.3208 45.4204 40.2843 44.0479 43.236 40.1304C44.455 39.9426 45.1183 39.6666 46.1148 39.2181C46.4751 39.0571 46.8968 38.8693 47.4565 38.6431C49.6493 40.7016 52.6086 43.0974 55.7251 45.6159C61.3601 50.1736 67.7503 55.3411 69.1878 58.3311C69.897 59.8069 69.134 60.7691 68.6166 61.2099C67.8576 61.8616 66.8188 62.0686 66.2553 61.6736C65.6343 61.2481 64.8255 61.2214 64.1853 61.6046C63.5413 61.9879 63.181 62.7124 63.2615 63.4561C63.3918 64.6751 62.2763 65.3729 61.7933 65.6144C60.5666 66.2354 59.2863 66.1281 58.807 65.6834C58.2703 65.1851 57.4998 65.0394 56.8176 65.2924C56.1353 65.5491 55.6598 66.1779 55.5908 66.9061C55.4758 68.1634 54.5443 69.3709 53.3291 69.8424C52.7426 70.0647 51.8916 70.1989 51.1288 69.5012C50.6535 69.0719 49.9941 68.907 49.3771 69.0565C48.7523 69.2097 48.25 69.6622 48.0316 70.264C47.9588 70.4557 47.7938 70.9157 45.9998 70.9157C44.7233 70.9157 42.4271 70.0532 41.3041 69.3095C39.9585 68.424 31.5213 62.1297 24.2343 56.027C23.2108 55.1645 21.4398 53.3167 19.8758 51.6837C18.488 50.2347 17.2193 48.92 16.5675 48.368C15.751 47.678 14.5435 47.7815 13.865 48.5942C13.1828 49.403 13.2823 50.6144 14.0913 51.2967C14.6855 51.7989 15.8355 53.014 17.1043 54.3365C18.814 56.1227 20.581 57.9705 21.7695 58.9672C28.9072 64.9434 37.4862 71.3949 39.1958 72.518C40.6065 73.4457 43.6463 74.749 46 74.749C47.8898 74.749 49.3427 74.3157 50.3508 73.4687C51.7001 73.9939 53.2335 73.9977 54.7093 73.4227C56.4535 72.748 57.8871 71.3872 58.6998 69.7389C60.2101 70.0609 61.939 69.8347 63.5106 69.0451C65.0478 68.2709 66.1593 67.0864 66.7113 65.7024C68.237 65.7829 69.8086 65.2424 71.1081 64.1269C73.3087 62.2449 73.9143 59.3163 72.6417 56.6751Z" fill="#EFEFEF"/>
<path d="M38.3333 24.916H21.0833C20.0253 24.916 19.1666 25.7747 19.1666 26.8327C19.1666 27.8907 20.0253 28.7495 21.0833 28.7495H38.3333C39.3913 28.7495 40.25 27.8907 40.25 26.8327C40.25 25.7747 39.3913 24.916 38.3333 24.916Z" fill="#EFEFEF"/>
<path d="M78.2575 52.5967C77.6633 51.7189 76.475 51.4774 75.5972 52.0754L69.993 55.8397C69.1152 56.43 68.8812 57.6222 69.4717 58.5C69.8435 59.0482 70.4492 59.3472 71.0664 59.3472C71.4306 59.3472 71.8024 59.2437 72.1321 59.0214L77.7364 55.2571C78.614 54.6667 78.8478 53.4746 78.2575 52.5967Z" fill="#EFEFEF"/>
<path d="M66.3588 61.7431C64.9865 60.6621 58.8493 54.3793 55.0543 50.4233C54.3221 49.6566 53.107 49.6298 52.3441 50.3658C51.5773 51.098 51.5543 52.3131 52.2866 53.076C53.2718 54.1033 61.9618 63.1615 63.9821 64.7562C64.3308 65.0322 64.7526 65.1665 65.1666 65.1665C65.7301 65.1665 66.2936 64.9135 66.6768 64.4342C67.3325 63.6061 67.1908 62.3986 66.3588 61.7431Z" fill="#EFEFEF"/>
<path d="M58.6998 65.5877C56.4035 63.7515 50.6345 57.622 49.331 56.2037C48.6103 55.4217 47.4028 55.3757 46.6208 56.0887C45.8426 56.8055 45.789 58.0207 46.5058 58.799C46.5748 58.8717 53.4595 66.3047 56.3038 68.5817C56.6565 68.8615 57.082 68.9995 57.4998 68.9995C58.0595 68.9995 58.6191 68.7502 58.9986 68.2827C59.6582 67.4545 59.524 66.247 58.6998 65.5877Z" fill="#EFEFEF"/>
<path d="M51.0715 69.448C48.3383 67.1442 42.7455 61.191 41.653 60.0218C40.9285 59.2475 39.7133 59.2053 38.9428 59.9298C38.1685 60.6543 38.13 61.8655 38.8508 62.64C40.4225 64.3228 45.7738 69.9962 48.599 72.3805C48.9593 72.6833 49.3963 72.8328 49.8333 72.8328C50.3775 72.8328 50.922 72.599 51.3015 72.1505C51.9838 71.3378 51.8803 70.1303 51.0715 69.448Z" fill="#EFEFEF"/>
<path d="M22.402 21.6078C19.1168 18.4951 5.98 17.4869 2.03173 17.2531C1.48745 17.2263 0.985227 17.4064 0.601953 17.7706C0.2185 18.1309 0 18.6369 0 19.1659V53.6659C0 54.7239 0.858727 55.5826 1.91673 55.5826H13.4167C14.2447 55.5826 14.9807 55.0498 15.2375 54.2601C15.5173 53.4014 22.1222 33.1308 22.9923 23.1641C23.0422 22.5814 22.8275 22.0064 22.402 21.6078ZM12.0175 51.7493H3.83327V21.2206C9.9935 21.7074 16.6405 22.7654 19.0555 23.9384C18.0397 32.3334 13.4435 47.2489 12.0175 51.7493Z" fill="#EFEFEF"/>
<path d="M90.0832 21.0825C75.0335 21.0825 66.6845 24.935 66.3357 25.096C65.8375 25.3298 65.4655 25.763 65.3122 26.2882C65.159 26.8135 65.2355 27.377 65.523 27.8445C67.892 31.6587 75.3095 52.8417 76.7355 58.009C76.9655 58.8408 77.7207 59.4158 78.5832 59.4158H90.0832C91.1412 59.4158 92 58.5571 92 57.4991V22.9991C92 21.9373 91.1412 21.0825 90.0832 21.0825ZM88.1667 55.5825H80.017C78.2 49.6638 72.8332 34.2308 69.8395 27.8522C72.7642 26.8595 79.0472 25.1535 88.1667 24.939V55.5825Z" fill="#EFEFEF"/>
</svg>
