<svg width="28" height="25" viewBox="0 0 28 25" fill="none" xmlns="http://www.w3.org/2000/svg">
<g clip-path="url(#clip0_310_308)">
<path d="M27.2286 22.0703V2.92969C27.2286 1.31426 25.4688 0 23.3056 0C20.9878 0 19.4343 1.43105 19.4343 2.92969H0.800049V25H23.3056C25.4688 25 27.2286 23.6857 27.2286 22.0703ZM20.9828 2.92969C20.9828 2.13564 22.0465 1.46484 23.3056 1.46484C24.5705 1.46484 25.6801 2.14937 25.6801 2.92969V19.7396C25.0204 19.3639 24.1973 19.1406 23.3056 19.1406C22.4585 19.1406 21.6483 19.3446 20.9828 19.7204V2.92969ZM2.3486 4.39453H19.4343V5.85938H3.89715V8.78906H5.4457V7.32422H11.6915V10.3027H8.59441V11.7676H11.6915V16.1621H16.3372V14.6973H13.2401V7.32422H16.3372V10.3027H17.8857V7.32422H19.4343V19.1406H16.3372V20.6055H19.4343V22.0703H20.9828C20.9828 21.2763 22.0465 20.6055 23.3056 20.6055C24.5705 20.6055 25.6801 21.29 25.6801 22.0703C25.6801 22.8506 24.5705 23.5352 23.3056 23.5352H2.3486V4.39453Z" fill="#141414"/>
<path d="M5.44577 16.1621H8.59448V14.6973H5.44577V11.7676H3.89722V20.6055H13.2401V19.1406H5.44577V16.1621Z" fill="#141414"/>
</g>
<defs>
<clipPath id="clip0_310_308">
<rect width="26.4286" height="25" fill="white" transform="translate(0.800049)"/>
</clipPath>
</defs>
</svg>
