<svg width="34" height="24" viewBox="0 0 34 24" fill="none" xmlns="http://www.w3.org/2000/svg">
<path d="M31.9886 2.8035C31.568 2.57836 31.0943 2.4716 30.618 2.49458C30.1417 2.51756 29.6804 2.66941 29.2833 2.934L24.3981 6.1965V4.5285C24.3969 3.52675 23.9992 2.56636 23.2922 1.85801C22.5852 1.14966 21.6267 0.751191 20.6268 0.75H4.21515C3.2153 0.751191 2.25675 1.14966 1.54975 1.85801C0.842751 2.56636 0.445036 3.52675 0.443848 4.5285V19.4715C0.445036 20.4733 0.842751 21.4336 1.54975 22.142C2.25675 22.8503 3.2153 23.2488 4.21515 23.25H20.6268C21.6267 23.2488 22.5852 22.8503 23.2922 22.142C23.9992 21.4336 24.3969 20.4733 24.3981 19.4715V17.8035L29.2833 21.066C29.6803 21.3309 30.1416 21.4828 30.618 21.5058C31.0945 21.5287 31.5682 21.4217 31.9887 21.1962C32.4092 20.9707 32.7608 20.6351 33.006 20.2252C33.2512 19.8153 33.3808 19.3464 33.381 18.8685V5.1315C33.3807 4.65359 33.251 4.18471 33.0058 3.77477C32.7607 3.36483 32.4091 3.02916 31.9886 2.8035ZM21.4038 19.4715C21.4038 19.678 21.322 19.876 21.1763 20.022C21.0305 20.168 20.8329 20.25 20.6268 20.25H4.21515C4.00907 20.25 3.81144 20.168 3.66572 20.022C3.52 19.876 3.43813 19.678 3.43813 19.4715V4.5285C3.43813 4.32203 3.52 4.12401 3.66572 3.97802C3.81144 3.83202 4.00907 3.75 4.21515 3.75H20.6268C20.8329 3.75 21.0305 3.83202 21.1763 3.97802C21.322 4.12401 21.4038 4.32203 21.4038 4.5285V19.4715ZM30.3867 18.198L24.3981 14.1975V9.8025L30.3867 5.802V18.198Z" fill="#EFEFEF"/>
</svg>
