<svg width="81" height="80" viewBox="0 0 81 80" fill="none" xmlns="http://www.w3.org/2000/svg">
<g clip-path="url(#clip0_702_50)">
<path d="M79.0892 15.5911L59.1614 0.476094C58.3248 -0.15875 57.1684 -0.158594 56.3314 0.475937L36.4033 15.5909C35.8183 16.0347 35.4744 16.7272 35.4744 17.4622V26.1008L23.7052 17.1742C22.8683 16.5394 21.7119 16.5394 20.8752 17.1742L0.947034 32.2892C0.361878 32.7331 0.0181274 33.4256 0.0181274 34.1606V67.945C0.0181274 69.2414 1.0675 70.2923 2.36203 70.2923H19.9463V77.6525C19.9463 78.9489 20.9956 79.9998 22.2902 79.9998H67.4097C68.7042 79.9998 69.7536 78.9489 69.7536 77.6525V53.5941H77.6742C78.9688 53.5941 80.0181 52.5431 80.0181 51.2467V17.4623C80.0181 16.7273 79.6744 16.0348 79.0892 15.5911ZM4.70594 65.5977V35.3275L22.2902 21.9903L31.8302 29.2261L20.875 37.5353C20.29 37.9791 19.9461 38.6716 19.9461 39.4066V65.5975H4.70594V65.5977ZM48.3642 75.3052H41.1316V50.9614H48.3642V75.3052ZM65.0658 75.3052H53.052V48.6141C53.052 47.3177 52.0027 46.2667 50.7081 46.2667H38.7877C37.4931 46.2667 36.4438 47.3177 36.4438 48.6141V75.3052H24.6339V40.5734L44.8498 25.2402L65.0658 40.5734V75.3052ZM75.3303 48.8994H69.7536V39.4067C69.7536 38.6717 69.4098 37.9792 68.8247 37.5355L46.2648 20.4242C45.428 19.7894 44.2716 19.7894 43.4348 20.4242L40.162 22.9066V18.6292L57.7463 5.29203L75.3303 18.6292V48.8994Z" fill="#EFEFEF"/>
</g>
<defs>
<clipPath id="clip0_702_50">
<rect width="80" height="80" fill="white" transform="translate(0.0181274)"/>
</clipPath>
</defs>
</svg>
