<svg width="154" height="154" viewBox="0 0 154 154" fill="none" xmlns="http://www.w3.org/2000/svg">
<path d="M139.599 56.2204C139.337 55.5868 138.944 55.0167 138.443 54.5483C137.943 54.0799 137.348 53.7242 136.699 53.5052C136.05 53.2862 135.361 53.2089 134.679 53.2786C133.998 53.3484 133.339 53.5634 132.747 53.9093C132.156 54.2553 131.645 54.724 131.25 55.2839C130.855 55.8438 130.585 56.482 130.458 57.1552C130.33 57.8285 130.348 58.5213 130.511 59.1869C130.674 59.8525 130.978 60.4754 131.402 61.0136C133.456 64.3076 134.551 68.1085 134.566 71.9901C134.607 72.6765 134.607 73.3648 134.566 74.0512C134.176 77.4789 132.976 80.7647 131.067 83.6377L130.396 84.5963C126.732 89.3035 122.108 93.1761 116.831 95.9563H116.351L115.872 96.1959C103.892 102.446 90.5591 105.656 77.0469 105.543C63.5629 105.76 50.2316 102.665 38.2217 96.5315L37.7424 96.2918L37.1193 95.9563C31.9346 93.1383 27.4087 89.2496 23.842 84.5484L23.2668 83.7335C21.3313 80.8652 20.0996 77.5808 19.6719 74.1471C19.5792 73.4318 19.5311 72.7114 19.5281 71.9901C19.5281 53.8237 45.8909 38.4374 77.0469 38.4374C80.425 38.4371 83.8009 38.6131 87.1606 38.9647C88.4319 39.0982 89.7041 38.7212 90.6974 37.9167C91.6907 37.1122 92.3237 35.946 92.4572 34.6748C92.5906 33.4035 92.2137 32.1313 91.4091 31.138C90.6046 30.1447 89.4385 29.5117 88.1672 29.3782C84.4722 29.0081 80.7603 28.8321 77.0469 28.851C39.42 28.851 9.94161 48.0239 9.94161 71.9901V100.75C9.88454 101.755 9.88454 102.763 9.94161 103.769C10.5793 109.225 12.6096 114.424 15.8373 118.868C20.1747 124.793 25.7528 129.7 32.1822 133.248C45.9874 140.556 61.43 144.219 77.0469 143.889C92.6318 144.133 108.022 140.405 121.768 133.056C128.195 129.506 133.773 124.599 138.113 118.676C141.356 114.317 143.434 109.203 144.152 103.817C144.212 102.796 144.212 101.771 144.152 100.75V71.9901C144.112 66.415 142.537 60.9587 139.599 56.2204ZM134.566 100.75C134.605 101.436 134.605 102.124 134.566 102.811C134.09 106.607 132.655 110.22 130.396 113.308C126.799 118.017 122.24 121.906 117.022 124.716C104.726 131.249 90.9694 134.548 77.0469 134.302C63.1403 134.542 49.401 131.243 37.1193 124.716C31.9384 121.913 27.4126 118.041 23.842 113.356C21.5186 110.254 20.0329 106.605 19.5281 102.763C19.4891 102.092 19.4891 101.42 19.5281 100.75V94.3745C20.5347 95.429 21.5892 96.4356 22.7395 97.4422L23.6503 98.2091C24.6089 99.008 25.6155 99.7909 26.67 100.558L27.8204 101.421C29.2104 102.379 30.6484 103.29 32.1822 104.201L33.6202 104.968C47.0457 111.859 61.9578 115.348 77.0469 115.129C92.1716 115.341 107.117 111.835 120.569 104.92L121.768 104.297C123.35 103.386 124.788 102.427 126.226 101.468L127.376 100.75C128.462 99.9826 129.485 99.1837 130.444 98.3529L131.354 97.586C132.505 96.5794 133.559 95.5728 134.566 94.5183V100.75Z" fill="#141414"/>
<path d="M81.8401 48.0257C81.8401 46.7544 81.3351 45.5352 80.4362 44.6363C79.5373 43.7374 78.3182 43.2324 77.0469 43.2324C75.7757 43.2324 74.5565 43.7374 73.6576 44.6363C72.7587 45.5352 72.2537 46.7544 72.2537 48.0257C68.4399 48.0257 64.7824 49.5407 62.0857 52.2374C59.389 54.9341 57.874 58.5916 57.874 62.4054C57.874 66.2191 59.389 69.8766 62.0857 72.5734C64.7824 75.2701 68.4399 76.7851 72.2537 76.7851V86.3715H62.6672C61.396 86.3715 60.1768 86.8765 59.2779 87.7755C58.379 88.6744 57.874 89.8935 57.874 91.1648C57.874 92.436 58.379 93.6552 59.2779 94.5541C60.1768 95.453 61.396 95.958 62.6672 95.958H72.2537C72.2537 97.2293 72.7587 98.4484 73.6576 99.3474C74.5565 100.246 75.7757 100.751 77.0469 100.751C78.3182 100.751 79.5373 100.246 80.4362 99.3474C81.3351 98.4484 81.8401 97.2293 81.8401 95.958C85.6539 95.958 89.3114 94.443 92.0081 91.7463C94.7048 89.0496 96.2198 85.392 96.2198 81.5783C96.2198 77.7646 94.7048 74.107 92.0081 71.4103C89.3114 68.7136 85.6539 67.1986 81.8401 67.1986V57.6121H91.4266C92.6979 57.6121 93.917 57.1071 94.8159 56.2082C95.7149 55.3093 96.2198 54.0901 96.2198 52.8189C96.2198 51.5476 95.7149 50.3285 94.8159 49.4296C93.917 48.5307 92.6979 48.0257 91.4266 48.0257H81.8401ZM86.6334 81.5783C86.6334 82.8496 86.1284 84.0687 85.2295 84.9676C84.3306 85.8666 83.1114 86.3715 81.8401 86.3715V76.7851C83.1114 76.7851 84.3306 77.2901 85.2295 78.189C86.1284 79.0879 86.6334 80.3071 86.6334 81.5783ZM72.2537 67.1986C70.9824 67.1986 69.7632 66.6936 68.8643 65.7947C67.9654 64.8958 67.4604 63.6766 67.4604 62.4054C67.4604 61.1341 67.9654 59.9149 68.8643 59.016C69.7632 58.1171 70.9824 57.6121 72.2537 57.6121V67.1986Z" fill="#141414"/>
<path d="M105.806 38.4387C106.437 38.4424 107.062 38.3215 107.646 38.0829C108.23 37.8444 108.762 37.4929 109.21 37.0487L115.393 30.8175V57.6117C115.393 58.8829 115.898 60.1021 116.797 61.001C117.696 61.8999 118.915 62.4049 120.186 62.4049C121.457 62.4049 122.676 61.8999 123.575 61.001C124.474 60.1021 124.979 58.8829 124.979 57.6117V30.8175L131.163 37.0008C132.079 37.786 133.259 38.1963 134.465 38.1498C135.672 38.1032 136.816 37.6031 137.67 36.7494C138.523 35.8958 139.023 34.7514 139.07 33.5451C139.117 32.3388 138.706 31.1593 137.921 30.2423L123.541 15.8626C122.643 14.9698 121.428 14.4688 120.162 14.4688C118.896 14.4687 117.681 14.9698 116.783 15.8626L102.403 30.2423C101.727 30.9127 101.266 31.7693 101.079 32.7028C100.892 33.6362 100.987 34.6043 101.352 35.4836C101.717 36.3629 102.335 37.1135 103.129 37.6399C103.922 38.1662 104.854 38.4443 105.806 38.4387Z" fill="#141414"/>
</svg>
