<svg width="103" height="102" viewBox="0 0 103 102" fill="none" xmlns="http://www.w3.org/2000/svg">
<path d="M81.5599 5.91504L78.8372 8.62939L68.6937 18.7812L70.9349 28.0781L66.577 32.4443C60.1344 26.7063 51.6703 23.189 42.3802 23.189C22.2753 23.189 5.93146 39.5328 5.93146 59.6377C5.93146 79.7426 22.2753 96.0864 42.3802 96.0864C62.4851 96.0864 78.8289 79.7426 78.8289 59.6377C78.8289 50.3498 75.3091 41.8912 69.5735 35.4492L73.9315 31.083L83.2366 33.3242L96.1028 20.458L84.2576 17.7603L81.5599 5.91504ZM79.1194 14.3652L80.7132 21.313L87.6609 22.8901L81.9168 28.6343L75.0355 26.9824L73.3836 20.1011L79.1194 14.3652ZM42.3802 27.439C50.5209 27.439 57.9245 30.4746 63.5887 35.4409L58.6414 40.3965C54.248 36.6776 48.5734 34.4282 42.3802 34.4282C28.4798 34.4282 17.1624 45.7373 17.1624 59.6377C17.1624 73.5381 28.4798 84.8555 42.3802 84.8555C56.2806 84.8555 67.5897 73.5381 67.5897 59.6377C67.5897 53.4593 65.3492 47.7987 61.6463 43.4097L66.5936 38.4375C71.5531 44.1 74.5789 51.5032 74.5789 59.6377C74.5789 77.4457 60.1882 91.8364 42.3802 91.8364C24.5722 91.8364 10.1815 77.4457 10.1815 59.6377C10.1815 41.8297 24.5722 27.439 42.3802 27.439ZM42.3802 38.6782C47.4207 38.6782 51.9771 40.5112 55.5867 43.4595L49.5604 49.4941C47.5255 48.0473 45.0558 47.1782 42.3802 47.1782C35.5214 47.1782 29.9124 52.7789 29.9124 59.6377C29.9124 66.4965 35.5214 72.1055 42.3802 72.1055C49.239 72.1055 54.8397 66.4965 54.8397 59.6377C54.8397 56.9853 53.9892 54.5323 52.5652 52.5073L58.5833 46.4727C61.5134 50.0768 63.3397 54.6144 63.3397 59.6377C63.3397 71.2412 53.9837 80.6055 42.3802 80.6055C30.7766 80.6055 21.4124 71.2412 21.4124 59.6377C21.4124 48.0341 30.7766 38.6782 42.3802 38.6782ZM42.3802 51.4282C43.8946 51.4282 45.2845 51.8615 46.4974 52.5654L39.7488 59.3306L42.762 62.3354L49.494 55.5869C50.1738 56.7846 50.5897 58.1514 50.5897 59.6377C50.5897 64.1996 46.9421 67.8555 42.3802 67.8555C37.8183 67.8555 34.1624 64.1996 34.1624 59.6377C34.1624 55.0758 37.8183 51.4282 42.3802 51.4282Z" fill="#EFEFEF"/>
</svg>
