<svg width="83" height="83" viewBox="0 0 83 83" fill="none" xmlns="http://www.w3.org/2000/svg">
<g clip-path="url(#clip0_702_105)">
<path d="M58.3632 15.8735C52.0814 10.7664 43.8475 8.80337 35.7705 10.4865C25.2753 12.6743 16.9786 21.3339 15.1599 31.9039C13.5642 41.1744 16.7569 49.9783 23.0045 55.9599C27.0319 59.8157 29.3419 65.1811 29.3419 70.6801V75.7055C29.3419 79.7278 32.6145 83.0004 36.6368 83.0004H46.3633C50.3856 83.0004 53.6582 79.7278 53.6582 75.7055C53.6582 71.2621 53.6582 79.864 53.6582 69.2325C53.6582 64.5219 55.8505 59.8632 59.8316 56.115C65.18 51.0795 68.2474 43.9803 68.2474 36.6373C68.248 28.549 64.6449 20.9812 58.3632 15.8735ZM46.3633 78.1365H36.6368C35.2962 78.1365 34.2052 77.0454 34.2052 75.7049V73.1111H48.7949V75.7049C48.7949 77.0454 47.7039 78.1365 46.3633 78.1365ZM41.5001 51.7064L34.9024 41.8102L36.6368 40.0758L39.7808 43.2198C40.73 44.169 42.2701 44.169 43.2193 43.2198L46.3633 40.0758L48.0977 41.8102L41.5001 51.7064ZM56.4983 52.574C51.7997 56.9978 49.0983 62.5297 48.819 68.2479H43.9317V56.8262L53.1162 43.0495L57.8091 38.3565C58.7589 37.4067 58.7589 35.8673 57.8091 34.9174C56.8592 33.9682 55.3198 33.9682 54.37 34.9174L51.2266 38.0615L48.0826 34.9174C47.1327 33.9682 45.5933 33.9682 44.6434 34.9174L41.4994 38.0615L38.356 34.9174C37.4062 33.9682 35.8668 33.9682 34.9169 34.9174L31.7729 38.0615L28.6289 34.9174C27.6797 33.9682 26.1403 33.9682 25.1904 34.9174C24.2405 35.8673 24.2405 37.4067 25.1904 38.3565L29.8833 43.0495L39.0678 56.8262V68.2479H34.0836C33.4921 62.3011 30.7534 56.6463 26.3676 52.4467C21.0155 47.3232 18.6776 40.1359 19.9523 32.7283C21.4442 24.0574 28.1995 17.0323 36.7622 15.2472C43.3991 13.8636 50.1539 15.4676 55.2945 19.6469C60.4357 23.8269 63.3841 30.0193 63.3841 36.6367C63.3847 42.7335 60.9392 48.3933 56.4983 52.574Z" fill="#EFEFEF"/>
<path d="M9.72664 36.6367C9.72664 35.2942 8.63811 34.2051 7.29501 34.2051H2.43175C1.08929 34.2051 0.00012207 35.2942 0.00012207 36.6367C0.00012207 37.9798 1.08929 39.0683 2.43175 39.0683H7.29501C8.63811 39.0683 9.72664 37.9798 9.72664 36.6367Z" fill="#EFEFEF"/>
<path d="M80.5682 34.2051H75.7049C74.3618 34.2051 73.2733 35.2942 73.2733 36.6367C73.2733 37.9798 74.3618 39.0683 75.7049 39.0683H80.5682C81.9107 39.0683 82.9998 37.9798 82.9998 36.6367C82.9998 35.2942 81.9107 34.2051 80.5682 34.2051Z" fill="#EFEFEF"/>
<path d="M13.2336 17.5094L9.02191 15.0778C7.85929 14.4059 6.37181 14.8049 5.70058 15.9681C5.02935 17.1307 5.42766 18.6182 6.59028 19.2895L10.8019 21.7211C11.9646 22.3923 13.4527 21.9946 14.1239 20.8314C14.7951 19.6681 14.3968 18.1813 13.2336 17.5094Z" fill="#EFEFEF"/>
<path d="M76.409 53.9841L72.1974 51.5524C71.0341 50.8806 69.5473 51.2795 68.8761 52.4421C68.2042 53.6054 68.6025 55.0922 69.7657 55.7641L73.9774 58.1957C75.1394 58.8669 76.6269 58.4693 77.2987 57.3054C77.9706 56.1428 77.5723 54.6553 76.409 53.9841Z" fill="#EFEFEF"/>
<path d="M22.3724 7.85967C23.0443 9.02293 24.5318 9.4206 25.6944 8.74937C26.857 8.07814 27.2559 6.59066 26.5841 5.42804L24.1525 1.21638C23.4812 0.0531236 21.9937 -0.345182 20.8311 0.326049C19.6679 0.997913 19.2696 2.48475 19.9408 3.64801L22.3724 7.85967Z" fill="#EFEFEF"/>
<path d="M10.8019 51.5524L6.59028 53.9841C5.42766 54.6553 5.02935 56.1428 5.70058 57.3054C6.37245 58.4693 7.85992 58.8669 9.02191 58.1957L13.2336 55.7641C14.3968 55.0922 14.7951 53.6054 14.1239 52.4421C13.4527 51.2795 11.9652 50.8806 10.8019 51.5524Z" fill="#EFEFEF"/>
<path d="M72.1974 21.7213L76.409 19.2897C77.5723 18.6184 77.9706 17.131 77.2987 15.9683C76.6275 14.8051 75.1407 14.4068 73.9774 15.078L69.7657 17.5096C68.6025 18.1815 68.2042 19.6683 68.8761 20.8316C69.5473 21.9942 71.0341 22.3932 72.1974 21.7213Z" fill="#EFEFEF"/>
<path d="M57.3056 8.74937C58.4676 9.4206 59.9551 9.02356 60.6269 7.85967L63.0586 3.64801C63.7304 2.48475 63.3315 0.997913 62.1689 0.326049C61.0056 -0.345182 59.5181 0.0531236 58.8469 1.21638L56.4153 5.42804C55.7441 6.59066 56.1424 8.07814 57.3056 8.74937Z" fill="#EFEFEF"/>
</g>
<defs>
<clipPath id="clip0_702_105">
<rect width="83" height="83" fill="white"/>
</clipPath>
</defs>
</svg>
