<svg width="120" height="120" viewBox="0 0 120 120" fill="none" xmlns="http://www.w3.org/2000/svg">
<path d="M94.3865 58.7925C97.6359 54.1144 97.7147 52.035 94.3865 47.2425C92.4797 44.4956 92.3653 44.1487 92.6437 40.6641C93.0881 35.1562 92.2237 33.3572 86.9578 30.8766C83.8594 29.4178 83.5997 29.1656 82.1344 26.0541C79.7015 20.8866 77.9784 19.9162 72.3469 20.3681C68.8847 20.6494 68.5294 20.5425 65.7694 18.6262C64.1165 17.4759 62.2378 16.1719 60 16.1719C56.3297 16.1719 53.625 19.6697 51.2325 20.3156C50.0483 20.5217 48.839 20.5395 47.6494 20.3681C42.1181 19.9191 40.3312 20.8097 37.8619 26.0541C36.4022 29.1478 36.15 29.4113 33.0384 30.8766C27.9581 33.2691 26.8922 34.9537 27.3525 40.6641C27.6337 44.1262 27.5287 44.4778 25.6097 47.2425C22.3697 51.9141 22.2787 53.9925 25.6097 58.7925C27.5165 61.5366 27.6272 61.8862 27.3487 65.3662C26.9044 70.8759 27.7697 72.6787 33.0347 75.1537C34.2848 75.6072 35.418 76.3339 36.3515 77.2809L28.5506 94.0125C28.436 94.258 28.384 94.5281 28.3992 94.7986C28.4145 95.0691 28.4964 95.3316 28.6378 95.5627C28.7793 95.7938 28.9757 95.9862 29.2096 96.1229C29.4435 96.2596 29.7077 96.3362 29.9784 96.3459L38.8847 96.6666L44.85 103.286C45.0316 103.487 45.2601 103.64 45.5151 103.731C45.7702 103.823 46.0438 103.849 46.3117 103.809C46.5796 103.769 46.8334 103.663 47.0504 103.501C47.2675 103.339 47.441 103.126 47.5556 102.88L54.6347 87.6872C58.86 90.5934 61.1344 90.5934 65.3653 87.6872L72.4444 102.88C72.5588 103.126 72.7322 103.339 72.9493 103.502C73.1663 103.664 73.4202 103.77 73.6881 103.81C73.9561 103.85 74.2299 103.823 74.4849 103.732C74.74 103.641 74.9685 103.487 75.15 103.286L81.1153 96.6666L90.0309 96.3459C90.3017 96.336 90.5658 96.2593 90.7997 96.1225C91.0336 95.9857 91.23 95.7932 91.3714 95.562C91.5128 95.3308 91.5948 95.0683 91.61 94.7978C91.6252 94.5272 91.5733 94.2571 91.4587 94.0116L83.6475 77.2762C84.583 76.334 85.7144 75.6094 86.9615 75.1537C92.1403 72.7162 93.1003 70.9828 92.6475 65.3662C92.37 61.8956 92.4731 61.545 94.3865 58.7925ZM45.6281 99.2484L40.8562 93.9544C40.7092 93.7912 40.5308 93.6592 40.3318 93.5663C40.1327 93.4734 39.917 93.4214 39.6975 93.4134L32.5725 93.1556L38.2978 80.88C40.5722 85.5066 42.8025 86.0587 47.6494 85.6612C49.2515 85.5337 50.6034 85.3884 51.8325 85.935L45.6281 99.2484ZM80.3025 93.4134C80.0829 93.4214 79.8672 93.4734 79.6682 93.5663C79.4691 93.6592 79.2908 93.7912 79.1437 93.9544L74.3719 99.2484L68.1693 85.9359C69.375 85.3997 70.6612 85.5272 72.3525 85.6612C77.1919 86.0541 79.4315 85.5169 81.7059 80.8734L87.4378 93.1547L80.3025 93.4134ZM91.6875 56.9212C89.3503 60.285 89.0297 61.3566 89.3737 65.6297C89.714 69.8681 89.4675 70.3444 85.559 72.1856C81.7322 73.9884 80.9334 74.8106 79.17 78.5662C77.3334 82.4812 76.8515 82.7334 72.6075 82.3931C68.3522 82.05 67.2722 82.3631 63.9047 84.7041C60.3056 87.2006 59.6765 87.1997 56.0784 84.7041C52.6275 82.3059 51.5194 82.0584 47.3756 82.3931C43.1475 82.7325 42.6637 82.4916 40.8197 78.5719C39.0215 74.7544 38.2884 74.0044 34.4287 72.1856C30.525 70.3462 30.2737 69.8672 30.614 65.6297C30.959 61.3509 30.6337 60.2794 28.3003 56.9212C25.8103 53.3344 25.8056 52.7025 28.3003 49.1137C30.6281 45.7575 30.9628 44.6878 30.6169 40.4006C30.2765 36.165 30.5315 35.6822 34.4315 33.8456C38.2603 32.0409 39.0422 31.2338 40.8244 27.4528C42.66 23.5566 43.1344 23.2969 47.3803 23.6381C51.6619 23.985 52.7428 23.6475 56.0915 21.3216C59.6794 18.8325 60.3103 18.8325 63.8972 21.3216C67.2619 23.6587 68.3456 23.9841 72.6084 23.6381C76.8459 23.2978 77.3278 23.5528 79.1644 27.4528C80.969 31.2816 81.7762 32.0634 85.5572 33.8456C89.4628 35.685 89.7122 36.1659 89.3719 40.4006C89.0259 44.6878 89.3606 45.7566 91.6884 49.1137C94.185 52.7006 94.1812 53.3334 91.6875 56.9212Z" fill="#EFEFEF"/>
<path d="M71.55 45.8438L65.6119 44.9804L62.9569 39.6001C62.7104 39.1012 62.3294 38.6811 61.8567 38.3874C61.3841 38.0936 60.8387 37.938 60.2822 37.938C59.7257 37.938 59.1803 38.0936 58.7077 38.3874C58.235 38.6811 57.8539 39.1012 57.6075 39.6001L54.9525 44.9804L49.0153 45.8429C48.4645 45.9229 47.9471 46.1555 47.5216 46.5142C47.096 46.8729 46.7793 47.3436 46.6073 47.8729C46.4352 48.4022 46.4147 48.9691 46.548 49.5095C46.6813 50.0498 46.9631 50.5421 47.3616 50.9307L51.6562 55.1251L50.6437 61.037C50.5496 61.5856 50.6108 62.1496 50.8205 62.6652C51.0303 63.1809 51.3801 63.6275 51.8305 63.9546C52.2809 64.2817 52.8139 64.4762 53.3691 64.5161C53.9243 64.556 54.4796 64.4397 54.9722 64.1804L60.2812 61.3885L65.5922 64.1813C66.0849 64.4399 66.6401 64.5555 67.195 64.5152C67.75 64.4748 68.2825 64.28 68.7326 63.9528C69.1827 63.6256 69.5322 63.1791 69.7419 62.6637C69.9515 62.1482 70.0127 61.5845 69.9188 61.036L68.9062 55.1251L73.2037 50.9363C73.6039 50.5481 73.8873 50.0554 74.0216 49.5143C74.1559 48.9731 74.1358 48.4051 73.9636 47.8748C73.7914 47.3445 73.4739 46.8731 73.0473 46.5141C72.6207 46.1551 72.1019 45.9229 71.55 45.8438ZM66 53.3757C65.8102 53.5616 65.6684 53.7908 65.5867 54.0436C65.5051 54.2964 65.4861 54.5652 65.5312 54.827L66.5887 60.9938L61.0509 58.0829C60.8153 57.9596 60.5533 57.8952 60.2873 57.8952C60.0214 57.8952 59.7594 57.9596 59.5237 58.0829L53.9803 60.9938L55.0378 54.827C55.0833 54.5652 55.0643 54.2963 54.9827 54.0435C54.901 53.7906 54.759 53.5615 54.5691 53.3757L50.0878 49.007L56.2809 48.1079C56.5443 48.0696 56.7943 47.9678 57.0096 47.8113C57.2248 47.6549 57.3988 47.4484 57.5166 47.2098L60.2812 41.5988L63.0506 47.2098C63.1683 47.4483 63.3421 47.6547 63.5572 47.8111C63.7723 47.9676 64.0221 48.0694 64.2853 48.1079L70.4794 49.007L66 53.3757Z" fill="#EFEFEF"/>
<path d="M60.2812 28.8853C55.5088 28.8854 50.8435 30.3008 46.8754 32.9524C42.9073 35.604 39.8146 39.3727 37.9884 43.7819C36.1622 48.1912 35.6845 53.043 36.6156 57.7237C37.5468 62.4045 39.8451 66.704 43.2198 70.0786C46.5945 73.4532 50.8941 75.7513 55.5749 76.6823C60.2557 77.6133 65.1075 77.1354 69.5167 75.309C73.9259 73.4826 77.6944 70.3897 80.3459 66.4216C82.9973 62.4534 84.4125 57.788 84.4125 53.0156C84.4053 46.6179 81.8606 40.4843 77.3366 35.9605C72.8127 31.4367 66.679 28.8922 60.2812 28.8853ZM60.2812 73.8646C56.1577 73.8644 52.1269 72.6415 48.6984 70.3505C45.2699 68.0594 42.5978 64.8032 41.0199 60.9935C39.442 57.1838 39.0293 52.9918 39.8338 48.9475C40.6384 44.9033 42.6242 41.1884 45.54 38.2727C48.4558 35.357 52.1708 33.3714 56.2151 32.567C60.2594 31.7627 64.4514 32.1756 68.261 33.7536C72.0706 35.3317 75.3267 38.004 77.6176 41.4325C79.9085 44.8611 81.1312 48.892 81.1312 53.0156C81.1248 58.5433 78.926 63.8427 75.0172 67.7513C71.1085 71.6599 65.8089 73.8584 60.2812 73.8646Z" fill="#EFEFEF"/>
</svg>
