<svg width="26" height="26" viewBox="0 0 26 26" fill="none" xmlns="http://www.w3.org/2000/svg">
<path fill-rule="evenodd" clip-rule="evenodd" d="M3.25 13C3.25 18.3848 7.61523 22.75 13 22.75H20.5833C21.78 22.75 22.75 21.78 22.75 20.5833V13C22.75 7.61523 18.3848 3.25 13 3.25C7.61523 3.25 3.25 7.61523 3.25 13ZM8.66667 10.8333C8.66667 10.235 9.1517 9.75 9.75 9.75H16.25C16.8483 9.75 17.3333 10.235 17.3333 10.8333C17.3333 11.4317 16.8483 11.9167 16.25 11.9167H9.75C9.1517 11.9167 8.66667 11.4317 8.66667 10.8333ZM9.75 14.0833C9.1517 14.0833 8.66667 14.5683 8.66667 15.1667C8.66667 15.765 9.1517 16.25 9.75 16.25H13C13.5983 16.25 14.0833 15.765 14.0833 15.1667C14.0833 14.5683 13.5983 14.0833 13 14.0833H9.75Z" fill="#141414"/>
</svg>
