<svg width="83" height="82" viewBox="0 0 83 82" fill="none" xmlns="http://www.w3.org/2000/svg">
<g clip-path="url(#clip0_702_48)">
<path d="M65.6181 32.8C74.6616 32.8 82.0181 25.4435 82.0181 16.4C82.0181 7.35651 74.6616 0 65.6181 0C59.051 0 53.3888 3.88846 50.7723 9.47658L46.3806 7.85566C46.4327 7.51934 46.4847 7.18301 46.4847 6.83333C46.4847 3.06566 43.4191 0 39.6514 0C35.8837 0 32.8181 3.06566 32.8181 6.83333C32.8181 10.601 35.8837 13.6667 39.6514 13.6667C42.0991 13.6667 44.2339 12.3614 45.4404 10.4222L49.8247 12.0404C49.4396 13.4318 49.2181 14.8885 49.2181 16.4C49.2181 18.1904 49.5157 19.9094 50.0489 21.5237L35.0182 27.8939C32.2662 22.6908 26.8035 19.1333 20.5181 19.1333C18.4814 19.1333 16.5382 19.5244 14.7371 20.205L10.9567 12.2606C12.6037 11.0114 13.6847 9.05417 13.6847 6.83333C13.6847 3.06566 10.6191 0 6.8514 0C3.08372 0 0.0180664 3.06566 0.0180664 6.83333C0.0180664 10.601 3.08372 13.6667 6.8514 13.6667C7.41995 13.6667 7.96515 13.5766 8.49434 13.4438L12.27 21.3802C7.40327 24.2283 4.11807 29.4981 4.11807 35.5333C4.11807 41.2022 7.01022 46.2057 11.3945 49.152L8.89473 53.6457C8.24409 53.4408 7.56743 53.3 6.8514 53.3C3.08372 53.3 0.0180664 56.3657 0.0180664 60.1333C0.0180664 63.901 3.08372 66.9667 6.8514 66.9667C10.6191 66.9667 13.6847 63.901 13.6847 60.1333C13.6847 58.064 12.7405 56.2289 11.2837 54.9756L13.7888 50.4726C15.8442 51.4028 18.1184 51.9333 20.5181 51.9333C24.2684 51.9333 27.7178 50.6541 30.4838 48.5273L35.863 54.4451C33.135 57.3753 31.4514 61.2898 31.4514 65.6C31.4514 66.4361 31.5348 67.2509 31.6549 68.0531L25.3261 69.5552C24.237 67.2262 21.8874 65.6 19.1514 65.6C15.3837 65.6 12.3181 68.6657 12.3181 72.4333C12.3181 76.201 15.3837 79.2667 19.1514 79.2667C22.9191 79.2667 25.9847 76.201 25.9847 72.4333C25.9847 72.3579 25.964 72.2872 25.9627 72.2118L32.2795 70.7143C34.4336 77.2587 40.5943 82 47.8514 82C56.8949 82 64.2514 74.6435 64.2514 65.6C64.2514 62.7959 63.542 60.1554 62.2955 57.8458L70.3233 52.626C71.5645 53.8832 73.2835 54.6667 75.1847 54.6667C78.9524 54.6667 82.0181 51.601 82.0181 47.8333C82.0181 44.0657 78.9524 41 75.1847 41C71.4171 41 68.3514 44.0657 68.3514 47.8333C68.3514 48.7162 68.5329 49.555 68.8392 50.3304L60.7927 55.5615C59.1825 53.4915 57.0917 51.8199 54.6847 50.7101L61.3552 32.2181C62.7166 32.5851 64.142 32.8 65.6181 32.8ZM39.6514 10.9333C37.3912 10.9333 35.5514 9.09354 35.5514 6.83333C35.5514 4.57313 37.3912 2.73333 39.6514 2.73333C41.9116 2.73333 43.7514 4.57313 43.7514 6.83333C43.7514 9.09354 41.9116 10.9333 39.6514 10.9333ZM2.7514 6.83333C2.7514 4.57313 4.59119 2.73333 6.8514 2.73333C9.1116 2.73333 10.9514 4.57313 10.9514 6.83333C10.9514 9.09354 9.1116 10.9333 6.8514 10.9333C4.59119 10.9333 2.7514 9.09354 2.7514 6.83333ZM6.8514 64.2333C4.59119 64.2333 2.7514 62.3935 2.7514 60.1333C2.7514 57.8731 4.59119 56.0333 6.8514 56.0333C9.1116 56.0333 10.9514 57.8731 10.9514 60.1333C10.9514 62.3935 9.1116 64.2333 6.8514 64.2333ZM19.1514 76.5333C16.8912 76.5333 15.0514 74.6935 15.0514 72.4333C15.0514 70.1731 16.8912 68.3333 19.1514 68.3333C21.4116 68.3333 23.2514 70.1731 23.2514 72.4333C23.2514 74.6935 21.4116 76.5333 19.1514 76.5333ZM75.1847 43.7333C77.4449 43.7333 79.2847 45.5731 79.2847 47.8333C79.2847 50.0935 77.4449 51.9333 75.1847 51.9333C72.9245 51.9333 71.0847 50.0935 71.0847 47.8333C71.0847 45.5731 72.9245 43.7333 75.1847 43.7333ZM57.5695 27.4208C58.1795 24.2597 60.9662 21.8667 64.2514 21.8667H66.9847C70.2699 21.8667 73.0567 24.2597 73.6666 27.4208C71.4057 29.0757 68.629 30.0667 65.6181 30.0667C62.6071 30.0667 59.8304 29.0757 57.5695 27.4208ZM65.6181 19.1333C63.3579 19.1333 61.5181 17.2935 61.5181 15.0333C61.5181 12.7731 63.3579 10.9333 65.6181 10.9333C67.8783 10.9333 69.7181 12.7731 69.7181 15.0333C69.7181 17.2935 67.8783 19.1333 65.6181 19.1333ZM65.6181 2.73333C73.1541 2.73333 79.2847 8.86398 79.2847 16.4C79.2847 19.8167 78.0148 22.9384 75.9335 25.3367C74.9759 22.8149 72.9792 20.8023 70.4915 19.8087C71.7013 18.5755 72.4514 16.8918 72.4514 15.0333C72.4514 11.2657 69.3857 8.2 65.6181 8.2C61.8504 8.2 58.7847 11.2657 58.7847 15.0333C58.7847 16.8918 59.5348 18.5755 60.7446 19.8087C58.2569 20.8023 56.2603 22.8149 55.3027 25.3367C53.2213 22.9384 51.9514 19.8167 51.9514 16.4C51.9514 8.86398 58.082 2.73333 65.6181 2.73333ZM6.8514 35.5333C6.8514 27.9973 12.982 21.8667 20.5181 21.8667C28.0541 21.8667 34.1847 27.9973 34.1847 35.5333C34.1847 38.9607 32.9068 42.0904 30.8148 44.4921C29.8605 41.9609 27.8599 39.9383 25.3655 38.942C26.574 37.7088 27.324 36.0251 27.324 34.1667C27.324 30.399 24.2584 27.3333 20.4907 27.3333C16.723 27.3333 13.6574 30.399 13.6574 34.1667C13.6574 36.0251 14.4074 37.7088 15.6173 38.942C13.1369 39.931 11.1429 41.9362 10.182 44.448C8.11263 42.0524 6.8514 38.9407 6.8514 35.5333ZM16.3907 34.1667C16.3907 31.9065 18.2305 30.0667 20.4907 30.0667C22.7509 30.0667 24.5907 31.9065 24.5907 34.1667C24.5907 36.4269 22.7509 38.2667 20.4907 38.2667C18.2305 38.2667 16.3907 36.4269 16.3907 34.1667ZM12.4469 46.5361C13.0628 43.3837 15.8455 41 19.124 41H21.8574C25.1486 41 27.9406 43.401 28.5419 46.5721C26.2857 48.217 23.5177 49.2 20.5181 49.2C17.4965 49.2 14.7111 48.2024 12.4469 46.5361ZM39.7802 76.6027C40.3961 73.4503 43.1788 71.0667 46.4574 71.0667H49.1907C52.4819 71.0667 55.274 73.4677 55.8752 76.6388C53.619 78.2837 50.851 79.2667 47.8514 79.2667C44.8298 79.2667 42.0444 78.269 39.7802 76.6027ZM47.824 68.3333C45.5638 68.3333 43.724 66.4935 43.724 64.2333C43.724 61.9731 45.5638 60.1333 47.824 60.1333C50.0842 60.1333 51.924 61.9731 51.924 64.2333C51.924 66.4935 50.0842 68.3333 47.824 68.3333ZM61.5181 65.6C61.5181 69.0273 60.2402 72.1571 58.1481 74.5587C57.1938 72.0276 55.1932 70.005 52.6988 69.0087C53.9073 67.7755 54.6574 66.0918 54.6574 64.2333C54.6574 60.4657 51.5917 57.4 47.824 57.4C44.0564 57.4 40.9907 60.4657 40.9907 64.2333C40.9907 66.0918 41.7408 67.7755 42.9506 69.0087C40.4702 69.9976 38.4763 72.0029 37.5153 74.5147C35.446 72.119 34.1847 69.0073 34.1847 65.6C34.1847 58.064 40.3154 51.9333 47.8514 51.9333C55.3874 51.9333 61.5181 58.064 61.5181 65.6ZM52.1142 49.7819C50.7529 49.4149 49.3275 49.2 47.8514 49.2C44.1011 49.2 40.6517 50.4792 37.8857 52.606L32.5064 46.6882C35.2344 43.758 36.9181 39.8435 36.9181 35.5333C36.9181 33.7429 36.6204 32.0239 36.0873 30.4097L51.1179 24.0395C52.8016 27.2226 55.5035 29.7771 58.7861 31.2899L52.1142 49.7819Z" fill="#EFEFEF"/>
</g>
<defs>
<clipPath id="clip0_702_48">
<rect width="82" height="82" fill="white" transform="translate(0.0180664)"/>
</clipPath>
</defs>
</svg>
