<svg width="26" height="25" viewBox="0 0 26 25" fill="none" xmlns="http://www.w3.org/2000/svg">
<g clip-path="url(#clip0_310_302)">
<path d="M22.9531 0H0V22.0703H3.04688V25H26V2.92969H22.9531V0ZM1.52344 1.46484H21.4297V20.6055H1.52344V1.46484ZM24.4766 4.39453V23.5352H4.57031V22.0703H22.9531V4.39453H24.4766Z" fill="#EFEFEF"/>
<path d="M3.04688 17.627H19.9062V2.92969H3.04688V17.627ZM4.57031 11.342L6.90189 9.13696L10.3992 12.5L9.63753 13.2324H4.57031V11.342ZM4.57031 16.1621V14.6973H10.2687L14.5264 10.6033L18.3828 14.2706V16.1621H4.57031ZM18.3828 4.39453V12.2103L14.5205 8.53729L11.4766 11.4641L6.91061 7.07397L4.57031 9.28745V4.39453H18.3828Z" fill="#EFEFEF"/>
<path d="M11.4766 9.57031C12.7366 9.57031 13.7617 8.58459 13.7617 7.37305C13.7617 6.1615 12.7366 5.17578 11.4766 5.17578C10.2166 5.17578 9.19141 6.1615 9.19141 7.37305C9.19141 8.58459 10.2166 9.57031 11.4766 9.57031ZM11.4766 6.64062C11.8965 6.64062 12.2383 6.96926 12.2383 7.37305C12.2383 7.77683 11.8965 8.10547 11.4766 8.10547C11.0566 8.10547 10.7148 7.77683 10.7148 7.37305C10.7148 6.96926 11.0566 6.64062 11.4766 6.64062Z" fill="#EFEFEF"/>
</g>
<defs>
<clipPath id="clip0_310_302">
<rect width="26" height="25" fill="white"/>
</clipPath>
</defs>
</svg>
