<svg width="58" height="69" viewBox="0 0 58 69" fill="none" xmlns="http://www.w3.org/2000/svg">
<path d="M54.2651 15.2128C52.1378 11.2983 48.9903 7.94564 45.1119 5.46316C41.2336 2.98068 36.7488 1.44802 32.0699 1.00608C29.9533 0.807869 27.8207 0.807869 25.7042 1.00608C21.0253 1.44831 16.5407 2.98093 12.6621 5.46311C8.78363 7.9453 5.63569 11.2974 3.50757 15.2115C0.83007 20.2057 -0.204136 25.8276 0.53521 31.3693C1.27455 36.911 3.75438 42.1246 7.66236 46.3534L26.7191 67.978C26.9823 68.2768 27.3132 68.5175 27.6879 68.6827C28.0626 68.848 28.4719 68.9337 28.8863 68.9337C29.3008 68.9337 29.71 68.848 30.0848 68.6827C30.4595 68.5175 30.7903 68.2768 31.0535 67.978L50.1103 46.3534C54.0182 42.1248 56.498 36.9115 57.2374 31.37C57.9767 25.8285 56.9425 20.2068 54.2651 15.2128ZM28.8863 37.5125C26.6669 37.5125 24.4973 36.8982 22.6519 35.7474C20.8066 34.5965 19.3683 32.9608 18.5189 31.047C17.6696 29.1332 17.4474 27.0274 17.8803 24.9957C18.3133 22.964 19.3821 21.0978 20.9515 19.6331C22.5208 18.1684 24.5203 17.1709 26.6971 16.7667C28.8739 16.3626 31.1302 16.57 33.1806 17.3627C35.2311 18.1554 36.9837 19.4979 38.2167 21.2202C39.4498 22.9426 40.1079 24.9675 40.1079 27.039C40.1044 29.8157 38.921 32.4778 36.8173 34.4412C34.7136 36.4047 31.8614 37.5092 28.8863 37.5125Z" fill="#FB5000"/>
</svg>
