<svg width="213" height="213" viewBox="0 0 213 213" fill="none" xmlns="http://www.w3.org/2000/svg">
<path d="M160.543 102.768C160.543 73.0138 136.336 48.8066 106.582 48.8066C76.8275 48.8066 52.621 73.0138 52.621 102.768C52.621 121.014 61.9371 138.069 77.1264 147.987V164.987C77.1264 181.228 90.3398 194.441 106.581 194.441C122.823 194.441 136.036 181.228 136.036 164.987V155.438C136.036 155.436 136.036 147.987 136.036 147.987C151.227 138.069 160.543 121.015 160.543 102.768ZM125.634 164.987C125.634 175.492 117.087 184.039 106.582 184.039C96.0764 184.039 87.5296 175.492 87.5296 164.987V160.639H125.634V164.987ZM128.244 140.567C126.63 141.495 125.634 143.215 125.634 145.077V150.237H111.783V123.341C118.536 121.144 123.433 114.792 123.433 107.315C123.433 104.443 121.104 102.114 118.232 102.114C115.36 102.114 113.031 104.443 113.031 107.315C113.031 110.871 110.138 113.764 106.582 113.764C103.026 113.764 100.133 110.871 100.133 107.315C100.133 104.443 97.8039 102.114 94.9315 102.114C92.0591 102.114 89.7303 104.443 89.7303 107.315C89.7303 114.792 94.6268 121.144 101.381 123.341V150.237H87.5303V145.077C87.5303 143.215 86.5349 141.495 84.9201 140.567C71.4139 132.808 63.0242 118.324 63.0242 102.768C63.0242 78.7497 82.5644 59.2091 106.583 59.2091C130.602 59.2091 150.142 78.7493 150.142 102.768C150.141 118.325 141.751 132.809 128.244 140.567Z" fill="#141414"/>
<path d="M106.582 18.5254C103.71 18.5254 101.381 20.8542 101.381 23.7266V32.8575C101.381 35.7299 103.71 38.0587 106.582 38.0587C109.454 38.0587 111.783 35.7299 111.783 32.8575V23.7266C111.783 20.8542 109.455 18.5254 106.582 18.5254Z" fill="#141414"/>
<path d="M91.9513 34.1903L88.7229 25.6487C87.7073 22.9618 84.7046 21.6071 82.0188 22.6224C79.332 23.638 77.9768 26.6396 78.9925 29.3265L82.2205 37.8681C83.0073 39.9495 84.9857 41.2318 87.0867 41.2318C87.6976 41.2318 88.3195 41.1232 88.9249 40.8944C91.6118 39.8787 92.9669 36.8771 91.9513 34.1903Z" fill="#141414"/>
<path d="M131.145 22.6226C128.458 21.6066 125.457 22.9624 124.441 25.6493L121.213 34.1909C120.197 36.8774 121.552 39.879 124.239 40.8946C124.845 41.1235 125.466 41.232 126.077 41.232C128.179 41.232 130.157 39.9498 130.943 37.8683L134.172 29.3267C135.187 26.6395 133.832 23.6382 131.145 22.6226Z" fill="#141414"/>
</svg>
