<svg width="145" height="145" viewBox="0 0 145 145" fill="none" xmlns="http://www.w3.org/2000/svg">
<g clip-path="url(#clip0_312_56)">
<path d="M142.669 69.2632L130.741 53.4959L131.126 33.7261C131.175 31.2065 129.543 28.9617 127.13 28.2307L108.205 22.4989L96.9131 6.26666C95.4719 4.19448 92.8281 3.33483 90.4426 4.1648L71.7655 10.6639L53.0873 4.1648C50.704 3.33593 48.0591 4.19338 46.6179 6.26666L35.3259 22.4989L16.4014 28.2307C13.9884 28.9617 12.356 31.2065 12.4054 33.7261L12.7902 53.4959L0.861655 69.2632C-0.658678 71.2716 -0.658678 74.0463 0.861655 76.0547L12.7902 91.822L12.4054 111.592C12.356 114.111 13.9884 116.357 16.4014 117.087L35.3259 122.82L46.6179 139.051C48.0591 141.123 50.7029 141.983 53.0873 141.153L71.7655 134.654L90.4437 141.153C92.827 141.982 95.4719 141.125 96.9131 139.051L108.205 122.819L127.13 117.087C129.543 116.356 131.175 114.111 131.126 111.592L130.741 91.822L142.669 76.0547C144.19 74.0463 144.19 71.2716 142.669 69.2632ZM120.588 86.5849C119.826 87.593 119.425 88.8275 119.449 90.0906L119.788 107.55L103.07 112.613C101.858 112.98 100.805 113.745 100.081 114.785L90.1106 129.119L73.6156 123.38C72.4174 122.962 71.1136 122.962 69.9154 123.38L53.4204 129.119L43.4497 114.785C42.7263 113.745 41.6732 112.98 40.4607 112.613L23.7425 107.55L24.0822 90.0906C24.1064 88.8275 23.7051 87.593 22.9433 86.586L12.4076 72.659L22.9433 58.733C23.7062 57.725 24.1075 56.4904 24.0822 55.2273L23.7425 37.7682L40.4607 32.7049C41.6732 32.3377 42.7263 31.5726 43.4497 30.5326L53.4204 16.1988L69.9165 21.9383C71.1136 22.3549 72.4174 22.3549 73.6156 21.9383L90.1106 16.1988L100.082 30.5326C100.806 31.5715 101.859 32.3377 103.07 32.7049L119.788 37.7682L119.449 55.2273C119.425 56.4904 119.826 57.725 120.588 58.7319L131.123 72.659L120.588 86.5849ZM100.732 52.0218C102.93 54.2193 102.93 57.7832 100.732 59.9818L67.4167 93.2961C65.2236 95.4893 61.6574 95.4969 59.4566 93.2961L42.7989 76.6395C40.6014 74.4409 40.6014 70.877 42.7989 68.6795C44.9975 66.4809 48.5614 66.4809 50.7589 68.6795L63.4372 81.3566L92.772 52.0218C94.9696 49.8232 98.5335 49.8232 100.732 52.0218Z" fill="#141414"/>
</g>
<defs>
<clipPath id="clip0_312_56">
<rect width="144.088" height="144.088" fill="white" transform="translate(0.00311279 0.474609)"/>
</clipPath>
</defs>
</svg>
